<svg xmlns="http://www.w3.org/2000/svg" xmlns:xlink="http://www.w3.org/1999/xlink" viewBox="0 0 600 600"><defs><style>.cls-1{isolation:isolate;}.cls-2{fill:#2c0faf;}.cls-10,.cls-12,.cls-15,.cls-3,.cls-6,.cls-7{mix-blend-mode:multiply;}.cls-3{fill:url(#radial-gradient);}.cls-4{opacity:0.4;mix-blend-mode:hard-light;fill:url(#New_Gradient_Swatch_1);}.cls-5{fill:#cbaffb;}.cls-6{fill:url(#linear-gradient);}.cls-7{fill:url(#linear-gradient-2);}.cls-11,.cls-13,.cls-14,.cls-16,.cls-8{mix-blend-mode:lighten;}.cls-8{fill:url(#radial-gradient-2);}.cls-9{fill:#a4fcf3;}.cls-10{fill:url(#linear-gradient-3);}.cls-11{fill:url(#radial-gradient-3);}.cls-12{fill:url(#linear-gradient-4);}.cls-13{fill:url(#radial-gradient-4);}.cls-14{fill:url(#radial-gradient-5);}.cls-15{fill:url(#linear-gradient-5);}.cls-16{fill:url(#radial-gradient-6);}</style><radialGradient id="radial-gradient" cx="504.62" cy="622.21" r="273.06" gradientUnits="userSpaceOnUse"><stop offset="0" stop-color="#4d4d4d"/><stop offset="1" stop-color="#666" stop-opacity="0"/></radialGradient><radialGradient id="New_Gradient_Swatch_1" cx="88.13" cy="39.34" r="349.12" gradientUnits="userSpaceOnUse"><stop offset="0" stop-color="#e6e6e6"/><stop offset="1" stop-color="#e6e6e6" stop-opacity="0"/></radialGradient><linearGradient id="linear-gradient" x1="236.09" y1="206.74" x2="235.8" y2="234.4" gradientUnits="userSpaceOnUse"><stop offset="0" stop-color="#363240"/><stop offset="1" stop-color="#5c17e5" stop-opacity="0"/></linearGradient><linearGradient id="linear-gradient-2" x1="228.1" y1="321.96" x2="234.51" y2="275.55" gradientTransform="translate(470.9 537.53) rotate(-180)" xlink:href="#linear-gradient"/><radialGradient id="radial-gradient-2" cx="189.37" cy="263.71" r="57.44" gradientUnits="userSpaceOnUse"><stop offset="0" stop-color="#f2f2f2"/><stop offset="1" stop-color="#f2f2f2" stop-opacity="0"/></radialGradient><linearGradient id="linear-gradient-3" x1="344.87" y1="173.94" x2="294.11" y2="199.03" xlink:href="#linear-gradient"/><radialGradient id="radial-gradient-3" cx="185.2" cy="160.24" r="104.98" xlink:href="#radial-gradient-2"/><linearGradient id="linear-gradient-4" x1="175.77" y1="304.99" x2="318.35" y2="254.23" xlink:href="#linear-gradient"/><radialGradient id="radial-gradient-4" cx="427.25" cy="164.81" r="122.27" xlink:href="#radial-gradient-2"/><radialGradient id="radial-gradient-5" cx="425.97" cy="149.55" r="98.19" xlink:href="#radial-gradient-2"/><linearGradient id="linear-gradient-5" x1="228.97" y1="458.57" x2="232.39" y2="400.97" xlink:href="#linear-gradient"/><radialGradient id="radial-gradient-6" cx="174.93" cy="292.1" r="111.86" xlink:href="#radial-gradient-2"/></defs><g class="cls-1"><g id="Layer_3" data-name="Layer 3"><ellipse class="cls-2" cx="300" cy="300" rx="225.12" ry="223.1"/><ellipse class="cls-3" cx="300" cy="300" rx="225.12" ry="223.1"/><ellipse class="cls-4" cx="300" cy="300" rx="225.12" ry="223.1"/><rect class="cls-5" x="208.72" y="220.38" width="53.46" height="96.77"/><rect class="cls-6" x="208.72" y="220.38" width="53.46" height="96.77"/><rect class="cls-7" x="208.72" y="220.38" width="53.46" height="96.77" transform="translate(470.9 537.53) rotate(180)"/><rect class="cls-8" x="208.72" y="220.38" width="53.46" height="96.77"/><path class="cls-9" d="M208.72,220.38h0a53.17,53.17,0,0,1,53.17-53.17H324.6L360,220.38Z"/><path class="cls-10" d="M208.72,220.38h0a53.17,53.17,0,0,1,53.17-53.17H324.6L360,220.38Z"/><path class="cls-11" d="M208.72,220.38h0a53.17,53.17,0,0,1,53.17-53.17H324.6L360,220.38Z"/><path class="cls-5" d="M322.89,167.21H286.34l48.25,48.25c23.21,23.21,24.09,61,1.18,84.53a59.72,59.72,0,0,1-85,.57l-42,44.58H324a89,89,0,0,0,89-89.64C412.6,206.45,371.94,167.21,322.89,167.21Z"/><path class="cls-12" d="M322.89,167.21H286.34l48.25,48.25c23.21,23.21,24.09,61,1.18,84.53a59.72,59.72,0,0,1-85,.57l-42,44.58H324a89,89,0,0,0,89-89.64C412.6,206.45,371.94,167.21,322.89,167.21Z"/><path class="cls-13" d="M322.89,167.21H286.34l48.25,48.25c23.21,23.21,24.09,61,1.18,84.53a59.72,59.72,0,0,1-85,.57l-42,44.58H324a89,89,0,0,0,89-89.64C412.6,206.45,371.94,167.21,322.89,167.21Z"/><path class="cls-14" d="M322.89,167.21H286.34l48.25,48.25c23.21,23.21,24.09,61,1.18,84.53a59.72,59.72,0,0,1-85,.57l-42,44.58H324a89,89,0,0,0,89-89.64C412.6,206.45,371.94,167.21,322.89,167.21Z"/><path class="cls-9" d="M208.72,297.39V406.2a26.58,26.58,0,0,0,26.58,26.59h0a26.59,26.59,0,0,0,26.59-26.59V345.14l.29-35.61L233.1,285.89A14.9,14.9,0,0,0,208.72,297.39Z"/><path class="cls-15" d="M208.72,297.39V406.2a26.58,26.58,0,0,0,26.58,26.59h0a26.59,26.59,0,0,0,26.59-26.59V345.14l.29-35.61L233.1,285.89A14.9,14.9,0,0,0,208.72,297.39Z"/><path class="cls-16" d="M208.72,297.39V406.2a26.58,26.58,0,0,0,26.58,26.59h0a26.59,26.59,0,0,0,26.59-26.59V345.14l.29-35.61L233.1,285.89A14.9,14.9,0,0,0,208.72,297.39Z"/></g></g></svg>